<?xml version="1.0" encoding="UTF-8"?>
<svg width="800px" height="800px" viewBox="0 0 24 24" fill="none" xmlns="http://www.w3.org/2000/svg">
<path d="M12 3L4 6V8.5L12 5.5L20 8.5V6L12 3Z" fill="#086497"/>
<path d="M12 7L5 9.5V11.5L12 9L19 11.5V9.5L12 7Z" fill="#086497"/>
<path d="M5 11.5H19V21H5V11.5Z" fill="#086497"/>
<path d="M10 14H14V21H10V14Z" fill="#FFFFFF"/>
<path d="M20 21V12L19.5 11.5M4 21V12L4.5 11.5M19.5 11.5L12 9L4.5 11.5M19.5 11.5H4.5" stroke="#000000" stroke-width="1" stroke-linecap="round" stroke-linejoin="round"/>
<path d="M20 8.5V6L12 3L4 6V8.5" stroke="#000000" stroke-width="1" stroke-linecap="round" stroke-linejoin="round"/>
<path d="M19 9.5V12" stroke="#000000" stroke-width="1" stroke-linecap="round" stroke-linejoin="round"/>
<path d="M5 9.5V12" stroke="#000000" stroke-width="1" stroke-linecap="round" stroke-linejoin="round"/>
<path d="M14 21V14H10V21" stroke="#000000" stroke-width="1" stroke-linecap="round" stroke-linejoin="round"/>
<path d="M4 21H20" stroke="#000000" stroke-width="1" stroke-linecap="round" stroke-linejoin="round"/>
</svg>